<?xml version="1.0" encoding="utf-8"?>
<!-- Generator: Adobe Illustrator 19.2.1, SVG Export Plug-In . SVG Version: 6.00 Build 0)  -->
<svg version="1.1" id="layer" xmlns="http://www.w3.org/2000/svg" xmlns:xlink="http://www.w3.org/1999/xlink" x="0px" y="0px"
	 viewBox="0 0 652 652" style="enable-background:new 0 0 652 652;" xml:space="preserve">
<style type="text/css">
	.st0{fill:#5A8ECB;}
	.st1{fill:#079139;}
	.st2{fill:#5FB55B;}
	.st3{fill:#26231F;}
</style>
<g>
	<path class="st0" d="M517.5,277.8c-4.4,2.6-4.6,7.9-4.6,7.9v65l14-10.1v-47.8l69.9,46.3V322l-65.5-43.8
		C524.2,273.4,517.5,277.8,517.5,277.8"/>
	<path class="st1" d="M607.8,276.1c0.1,0,0.2,0,0.2,0C608,276,607.9,276.1,607.8,276.1"/>
	<path class="st1" d="M601.5,279.1l-29.8,19.8l12.6,8.6l21.9-14.7C606.2,292.7,607.1,278.9,601.5,279.1"/>
	<path class="st1" d="M607.4,276.2c-1.1,0.3-2.3,0.7-3.6,1.4c0.8-0.4,1.8-0.9,2.6-1.1C606.8,276.3,607.1,276.2,607.4,276.2"/>
	<path class="st2" d="M616.2,277.8c0,0-3.4-2.6-8.1-1.7c-0.1,0-0.1,0-0.2,0c-0.1,0-0.3,0.1-0.4,0.1c-0.3,0.1-0.6,0.2-1,0.3
		c-0.9,0.2-1.8,0.7-2.6,1.1c-1.4,0.7-2.4,1.5-2.4,1.5l0.1,0c5.6-0.1,4.7,13.7,4.7,13.7v44.7v6.2l14,10.1v-6.2v-61.9
		C620.1,285.7,620.5,280.4,616.2,277.8"/>
	<polygon class="st3" points="20.2,283.7 28.3,283.7 50.2,314 72.3,283.7 80.4,283.7 80.4,345.2 72.3,345.2 72.3,296.8 50,327 
		28.2,297.2 28.2,345.2 20.2,345.2 	"/>
	<path class="st3" d="M115,345.3c-3.4,0-6.7-0.6-9.7-1.9c-3.1-1.2-5.7-3-8-5.2c-2.3-2.2-4.1-4.8-5.4-7.8c-1.3-3-2-6.3-2-9.8
		c0-3.6,0.6-6.9,1.9-9.9c1.3-3,3.1-5.6,5.3-7.8c2.3-2.2,5-4,8-5.2c3.1-1.2,6.3-1.9,9.8-1.9c3.5,0,6.9,0.8,10.2,2.5
		c3.3,1.7,6,4,7.9,7v-9.4h7.9v49.3h-7.9v-9.2c-2,2.9-4.6,5.2-8,6.8C121.8,344.5,118.4,345.3,115,345.3 M115.8,337.9
		c2.5,0,4.9-0.5,7.1-1.4c2.2-0.9,4.1-2.1,5.7-3.7c1.6-1.6,2.9-3.4,3.8-5.5c0.9-2.1,1.4-4.4,1.4-6.8c0-2.4-0.5-4.7-1.4-6.8
		c-0.9-2.1-2.2-3.9-3.8-5.5c-1.6-1.6-3.5-2.8-5.7-3.7c-2.2-0.9-4.6-1.4-7.1-1.4c-2.5,0-4.8,0.5-6.9,1.4c-2.2,0.9-4,2.1-5.7,3.7
		c-1.6,1.6-2.9,3.4-3.8,5.5c-0.9,2.1-1.4,4.4-1.4,6.8c0,2.4,0.5,4.7,1.4,6.8c0.9,2.1,2.2,4,3.8,5.5c1.6,1.5,3.5,2.8,5.7,3.7
		C111,337.5,113.3,337.9,115.8,337.9"/>
	<path class="st3" d="M175.9,345.3c-3.4,0-6.7-0.6-9.7-1.9c-3.1-1.2-5.7-3-8-5.2c-2.3-2.2-4.1-4.8-5.4-7.8c-1.3-3-2-6.3-2-9.8
		c0-3.6,0.6-6.9,1.9-9.9c1.3-3,3.1-5.6,5.4-7.8c2.3-2.2,4.9-4,8-5.2c3.1-1.2,6.3-1.9,9.8-1.9c3.5,0,6.9,0.9,10.2,2.5
		c3.3,1.7,6,4.1,7.9,7.1v-9.6h8v47.8c0,3.8-0.6,7.2-1.9,10.2c-1.2,3-3,5.6-5.2,7.7c-2.2,2.1-4.9,3.8-8,4.9
		c-3.1,1.2-6.5,1.8-10.3,1.8c-6,0-10.9-1.2-14.7-3.5c-3.8-2.3-6.9-5.5-9.2-9.6l7.1-4.2c0.9,1.5,1.9,2.9,2.9,4.1
		c1,1.2,2.2,2.3,3.5,3.2c1.3,0.9,2.8,1.6,4.6,2.1c1.7,0.5,3.7,0.7,6,0.7c2.6,0,5-0.4,7.2-1.2c2.1-0.9,4-2,5.4-3.6
		c1.5-1.5,2.6-3.4,3.4-5.5c0.8-2.1,1.2-4.5,1.2-7v-7.6c-2,2.9-4.6,5.2-8,6.8C182.7,344.5,179.3,345.3,175.9,345.3 M176.6,337.9
		c2.5,0,4.9-0.5,7.1-1.4c2.2-0.9,4.1-2.1,5.7-3.7c1.6-1.6,2.9-3.4,3.8-5.5c0.9-2.1,1.4-4.4,1.4-6.8c0-2.4-0.5-4.7-1.4-6.8
		c-0.9-2.1-2.2-3.9-3.8-5.5c-1.6-1.6-3.5-2.8-5.7-3.7c-2.2-0.9-4.6-1.4-7.1-1.4c-2.5,0-4.8,0.5-7,1.4c-2.2,0.9-4,2.1-5.6,3.7
		c-1.6,1.6-2.9,3.4-3.8,5.5c-0.9,2.1-1.4,4.4-1.4,6.8c0,2.4,0.5,4.7,1.4,6.8c0.9,2.1,2.2,4,3.8,5.5c1.6,1.5,3.5,2.8,5.6,3.7
		C171.8,337.5,174.2,337.9,176.6,337.9"/>
	<path class="st3" d="M212,283.9c0-1.7,0.5-3,1.6-4.1c1-1,2.4-1.6,4.2-1.6c1.9,0,3.3,0.5,4.3,1.6c1,1,1.5,2.4,1.5,4.1
		c0,1.7-0.5,3.1-1.5,4.2c-1,1-2.4,1.6-4.3,1.6c-1.8,0-3.2-0.5-4.2-1.6C212.6,287,212,285.6,212,283.9 M213.7,295.9h8.1v49.3h-8.1
		V295.9z"/>
	<path class="st3" d="M257.4,345.3c-3.7,0-7.1-0.6-10.3-1.9c-3.1-1.3-5.9-3.1-8.2-5.3s-4.2-4.8-5.4-7.8c-1.3-3-1.9-6.2-1.9-9.6
		c0-3.5,0.7-6.8,2-9.8c1.3-3,3.2-5.7,5.5-7.9c2.3-2.2,5-4,8.2-5.2c3.2-1.2,6.6-1.9,10.2-1.9c2.7,0,5.3,0.4,7.7,1.1
		c2.4,0.7,4.6,1.8,6.6,3.1c2,1.3,3.7,2.9,5.2,4.8c1.5,1.8,2.7,3.9,3.6,6.1l-7.2,2.8c-1.5-3.2-3.6-5.8-6.3-7.6
		c-2.8-1.8-6-2.8-9.7-2.8c-2.5,0-4.9,0.5-7,1.4c-2.2,0.9-4,2.1-5.6,3.7c-1.6,1.6-2.8,3.4-3.7,5.5c-0.9,2.1-1.3,4.4-1.3,6.8
		c0,2.4,0.4,4.6,1.3,6.7c0.9,2.1,2.2,3.9,3.7,5.5c1.6,1.6,3.5,2.8,5.7,3.7c2.2,0.9,4.6,1.4,7.2,1.4c3.9,0,7.3-1,10-3
		c2.7-2,4.7-4.5,6.1-7.5l7.3,3c-1,2.2-2.2,4.2-3.7,6c-1.5,1.8-3.2,3.4-5.2,4.7c-2,1.3-4.2,2.4-6.7,3.1
		C262.9,345,260.3,345.3,257.4,345.3"/>
	<rect x="288.4" y="283.7" class="st3" width="11.5" height="61.5"/>
	<polygon class="st3" points="308.2,283.7 321.2,283.7 347.9,325.6 347.9,283.7 359.3,283.7 359.3,345.2 347.1,345.2 319.7,302 
		319.7,345.2 308.2,345.2 	"/>
	<polygon class="st3" points="367.3,283.7 402.1,283.7 402.1,294.7 378.7,294.7 378.7,308.8 402.1,308.8 402.1,319.8 378.7,319.8 
		378.7,345.2 367.3,345.2 	"/>
	<path class="st3" d="M439.7,345.3c-4.4,0-8.5-0.8-12.3-2.4c-3.8-1.6-7.2-3.8-10-6.6c-2.8-2.8-5.1-6-6.7-9.8
		c-1.6-3.7-2.5-7.8-2.5-12.1c0-4.3,0.8-8.3,2.5-12c1.6-3.7,3.9-7,6.7-9.8c2.8-2.8,6.2-5,10-6.6c3.8-1.6,7.9-2.4,12.3-2.4
		c4.4,0,8.5,0.8,12.3,2.4c3.8,1.6,7.2,3.8,10,6.6c2.9,2.8,5.1,6.1,6.7,9.8c1.6,3.7,2.5,7.7,2.5,12c0,4.3-0.8,8.3-2.5,12.1
		c-1.6,3.8-3.9,7-6.7,9.8c-2.9,2.8-6.2,5-10,6.6C448.2,344.5,444.1,345.3,439.7,345.3 M439.7,334c2.8,0,5.4-0.5,7.9-1.5
		c2.4-1,4.6-2.4,6.4-4.2c1.8-1.8,3.3-3.8,4.3-6.2c1-2.4,1.6-4.9,1.6-7.6c0-2.7-0.5-5.2-1.6-7.6c-1-2.4-2.5-4.5-4.3-6.2
		c-1.8-1.8-4-3.1-6.4-4.2c-2.5-1-5.1-1.6-7.9-1.6c-2.8,0-5.4,0.5-7.9,1.6c-2.4,1-4.6,2.4-6.4,4.2c-1.8,1.8-3.2,3.8-4.3,6.2
		c-1,2.4-1.6,4.9-1.6,7.6c0,2.7,0.5,5.3,1.6,7.6c1,2.4,2.5,4.5,4.3,6.2c1.8,1.8,3.9,3.2,6.4,4.2C434.2,333.5,436.9,334,439.7,334"/>
</g>
</svg>
